<?xml version="1.0" encoding="utf-8"?>
<svg width="358" height="18" viewBox="-1.8 0 143.2 18" fill="none" xmlns="http://www.w3.org/2000/svg" xmlns:bx="https://boxy-svg.com">
  <path d="M 4.082 13 L 1.298 2.818 L 2.551 2.818 L 4.679 11.111 L 4.778 11.111 L 6.946 2.818 L 8.338 2.818 L 10.506 11.111 L 10.605 11.111 L 12.733 2.818 L 13.986 2.818 L 11.202 13 L 9.929 13 L 7.682 4.886 L 7.602 4.886 L 5.355 13 L 4.082 13 Z M 17.854 13.159 C 17.118 13.159 16.483 12.997 15.95 12.672 C 15.419 12.344 15.01 11.886 14.722 11.3 C 14.437 10.71 14.294 10.024 14.294 9.242 C 14.294 8.459 14.437 7.77 14.722 7.173 C 15.01 6.573 15.411 6.106 15.925 5.771 C 16.442 5.433 17.045 5.264 17.734 5.264 C 18.132 5.264 18.525 5.33 18.913 5.463 C 19.3 5.596 19.653 5.811 19.972 6.109 C 20.29 6.404 20.543 6.795 20.732 7.283 C 20.921 7.77 21.016 8.37 21.016 9.082 L 21.016 9.58 L 15.129 9.58 L 15.129 8.565 L 19.822 8.565 C 19.822 8.134 19.736 7.75 19.564 7.412 C 19.395 7.074 19.153 6.807 18.838 6.612 C 18.526 6.416 18.159 6.318 17.734 6.318 C 17.267 6.318 16.863 6.434 16.521 6.666 C 16.183 6.895 15.923 7.193 15.741 7.561 C 15.558 7.929 15.467 8.323 15.467 8.744 L 15.467 9.421 C 15.467 9.997 15.567 10.486 15.766 10.887 C 15.968 11.285 16.248 11.588 16.606 11.797 C 16.964 12.002 17.38 12.105 17.854 12.105 C 18.162 12.105 18.44 12.062 18.689 11.976 C 18.941 11.886 19.158 11.754 19.34 11.578 C 19.522 11.399 19.663 11.177 19.763 10.912 L 20.896 11.23 C 20.777 11.615 20.576 11.953 20.295 12.244 C 20.013 12.533 19.665 12.758 19.251 12.921 C 18.836 13.08 18.371 13.159 17.854 13.159 Z M 28.985 13.179 C 28.501 13.179 28.062 13.088 27.668 12.906 C 27.273 12.72 26.96 12.453 26.728 12.105 C 26.496 11.754 26.38 11.33 26.38 10.832 C 26.38 10.395 26.466 10.04 26.638 9.769 C 26.811 9.493 27.041 9.278 27.329 9.122 C 27.618 8.966 27.936 8.85 28.284 8.774 C 28.635 8.695 28.988 8.632 29.343 8.585 C 29.807 8.526 30.183 8.481 30.472 8.451 C 30.763 8.418 30.975 8.363 31.108 8.287 C 31.244 8.211 31.312 8.078 31.312 7.889 L 31.312 7.849 C 31.312 7.359 31.178 6.978 30.909 6.706 C 30.644 6.434 30.241 6.298 29.701 6.298 C 29.141 6.298 28.702 6.421 28.383 6.666 C 28.065 6.911 27.842 7.173 27.712 7.452 L 26.599 7.054 C 26.798 6.59 27.063 6.229 27.394 5.97 C 27.729 5.708 28.093 5.526 28.488 5.423 C 28.886 5.317 29.277 5.264 29.661 5.264 C 29.906 5.264 30.188 5.294 30.506 5.354 C 30.828 5.41 31.138 5.528 31.436 5.707 C 31.738 5.886 31.988 6.156 32.187 6.517 C 32.386 6.878 32.485 7.362 32.485 7.969 L 32.485 13 L 31.312 13 L 31.312 11.966 L 31.252 11.966 C 31.173 12.132 31.04 12.309 30.854 12.498 C 30.669 12.687 30.422 12.848 30.114 12.98 C 29.805 13.113 29.429 13.179 28.985 13.179 Z M 29.164 12.125 C 29.628 12.125 30.019 12.034 30.337 11.852 C 30.659 11.669 30.901 11.434 31.063 11.146 C 31.229 10.857 31.312 10.554 31.312 10.236 L 31.312 9.162 C 31.262 9.222 31.153 9.276 30.984 9.326 C 30.818 9.372 30.626 9.414 30.407 9.45 C 30.191 9.483 29.981 9.513 29.776 9.54 C 29.573 9.563 29.409 9.583 29.283 9.599 C 28.978 9.639 28.693 9.704 28.428 9.793 C 28.166 9.88 27.954 10.01 27.792 10.186 C 27.633 10.358 27.553 10.594 27.553 10.892 C 27.553 11.3 27.704 11.608 28.006 11.817 C 28.311 12.022 28.697 12.125 29.164 12.125 Z M 37.729 13.159 C 37.013 13.159 36.396 12.99 35.879 12.652 C 35.362 12.314 34.965 11.848 34.686 11.255 C 34.408 10.662 34.269 9.984 34.269 9.222 C 34.269 8.446 34.411 7.762 34.696 7.168 C 34.985 6.572 35.386 6.106 35.899 5.771 C 36.416 5.433 37.02 5.264 37.709 5.264 C 38.246 5.264 38.73 5.364 39.161 5.563 C 39.592 5.761 39.944 6.04 40.22 6.398 C 40.495 6.756 40.665 7.173 40.732 7.651 L 39.558 7.651 C 39.469 7.303 39.27 6.994 38.962 6.726 C 38.657 6.454 38.246 6.318 37.729 6.318 C 37.271 6.318 36.87 6.438 36.526 6.676 C 36.184 6.911 35.918 7.245 35.725 7.675 C 35.536 8.103 35.442 8.605 35.442 9.182 C 35.442 9.772 35.535 10.286 35.72 10.723 C 35.909 11.161 36.174 11.5 36.516 11.742 C 36.86 11.984 37.265 12.105 37.729 12.105 C 38.034 12.105 38.31 12.052 38.559 11.946 C 38.808 11.84 39.018 11.688 39.19 11.489 C 39.363 11.29 39.485 11.051 39.558 10.773 L 40.732 10.773 C 40.665 11.224 40.501 11.63 40.239 11.991 C 39.981 12.349 39.638 12.634 39.21 12.846 C 38.786 13.055 38.292 13.159 37.729 13.159 Z M 45.549 13.159 C 44.833 13.159 44.217 12.99 43.7 12.652 C 43.183 12.314 42.785 11.848 42.507 11.255 C 42.228 10.662 42.089 9.984 42.089 9.222 C 42.089 8.446 42.231 7.762 42.516 7.168 C 42.805 6.572 43.206 6.106 43.72 5.771 C 44.237 5.433 44.84 5.264 45.529 5.264 C 46.066 5.264 46.55 5.364 46.981 5.563 C 47.412 5.761 47.765 6.04 48.04 6.398 C 48.315 6.756 48.486 7.173 48.552 7.651 L 47.379 7.651 C 47.289 7.303 47.09 6.994 46.782 6.726 C 46.477 6.454 46.066 6.318 45.549 6.318 C 45.092 6.318 44.691 6.438 44.346 6.676 C 44.005 6.911 43.738 7.245 43.546 7.675 C 43.357 8.103 43.262 8.605 43.262 9.182 C 43.262 9.772 43.355 10.286 43.541 10.723 C 43.73 11.161 43.995 11.5 44.336 11.742 C 44.681 11.984 45.085 12.105 45.549 12.105 C 45.854 12.105 46.131 12.052 46.379 11.946 C 46.628 11.84 46.838 11.688 47.011 11.489 C 47.183 11.29 47.306 11.051 47.379 10.773 L 48.552 10.773 C 48.486 11.224 48.322 11.63 48.06 11.991 C 47.801 12.349 47.458 12.634 47.031 12.846 C 46.606 13.055 46.113 13.159 45.549 13.159 Z M 53.469 13.159 C 52.733 13.159 52.098 12.997 51.565 12.672 C 51.034 12.344 50.625 11.886 50.337 11.3 C 50.052 10.71 49.909 10.024 49.909 9.242 C 49.909 8.459 50.052 7.77 50.337 7.173 C 50.625 6.573 51.026 6.106 51.54 5.771 C 52.057 5.433 52.66 5.264 53.35 5.264 C 53.747 5.264 54.14 5.33 54.528 5.463 C 54.916 5.596 55.269 5.811 55.587 6.109 C 55.905 6.404 56.159 6.795 56.347 7.283 C 56.536 7.77 56.631 8.37 56.631 9.082 L 56.631 9.58 L 50.744 9.58 L 50.744 8.565 L 55.438 8.565 C 55.438 8.134 55.351 7.75 55.179 7.412 C 55.01 7.074 54.768 6.807 54.453 6.612 C 54.142 6.416 53.774 6.318 53.35 6.318 C 52.882 6.318 52.478 6.434 52.136 6.666 C 51.798 6.895 51.538 7.193 51.356 7.561 C 51.174 7.929 51.083 8.323 51.083 8.744 L 51.083 9.421 C 51.083 9.997 51.182 10.486 51.381 10.887 C 51.583 11.285 51.863 11.588 52.221 11.797 C 52.579 12.002 52.995 12.105 53.469 12.105 C 53.777 12.105 54.056 12.062 54.304 11.976 C 54.556 11.886 54.773 11.754 54.955 11.578 C 55.138 11.399 55.279 11.177 55.378 10.912 L 56.511 11.23 C 56.392 11.615 56.192 11.953 55.91 12.244 C 55.628 12.533 55.28 12.758 54.866 12.921 C 54.452 13.08 53.986 13.159 53.469 13.159 Z M 58.416 15.864 L 58.416 5.364 L 59.549 5.364 L 59.549 6.577 L 59.688 6.577 C 59.775 6.444 59.894 6.275 60.046 6.07 C 60.202 5.861 60.424 5.675 60.712 5.513 C 61.004 5.347 61.399 5.264 61.896 5.264 C 62.539 5.264 63.105 5.425 63.596 5.746 C 64.087 6.068 64.469 6.524 64.744 7.114 C 65.02 7.704 65.157 8.4 65.157 9.202 C 65.157 10.01 65.02 10.711 64.744 11.305 C 64.469 11.895 64.088 12.352 63.601 12.677 C 63.114 12.998 62.552 13.159 61.916 13.159 C 61.425 13.159 61.032 13.078 60.737 12.916 C 60.442 12.75 60.215 12.563 60.056 12.354 C 59.897 12.142 59.775 11.966 59.688 11.827 L 59.589 11.827 L 59.589 15.864 L 58.416 15.864 Z M 59.569 9.182 C 59.569 9.759 59.654 10.267 59.823 10.708 C 59.992 11.146 60.239 11.489 60.563 11.737 C 60.888 11.983 61.286 12.105 61.757 12.105 C 62.247 12.105 62.656 11.976 62.985 11.717 C 63.316 11.456 63.565 11.104 63.73 10.663 C 63.899 10.219 63.984 9.725 63.984 9.182 C 63.984 8.645 63.901 8.161 63.735 7.73 C 63.573 7.296 63.326 6.953 62.994 6.701 C 62.666 6.446 62.254 6.318 61.757 6.318 C 61.279 6.318 60.878 6.439 60.553 6.681 C 60.229 6.92 59.983 7.255 59.818 7.685 C 59.652 8.113 59.569 8.612 59.569 9.182 Z M 70.268 5.364 L 70.268 6.358 L 66.31 6.358 L 66.31 5.364 L 70.268 5.364 Z M 67.464 3.534 L 68.637 3.534 L 68.637 10.813 C 68.637 11.144 68.685 11.393 68.781 11.558 C 68.881 11.721 69.007 11.83 69.159 11.886 C 69.315 11.939 69.479 11.966 69.651 11.966 C 69.781 11.966 69.887 11.959 69.97 11.946 C 70.052 11.93 70.119 11.916 70.168 11.906 L 70.407 12.96 C 70.328 12.99 70.217 13.02 70.074 13.05 C 69.931 13.083 69.751 13.099 69.532 13.099 C 69.201 13.099 68.876 13.028 68.558 12.886 C 68.243 12.743 67.981 12.526 67.772 12.234 C 67.567 11.943 67.464 11.575 67.464 11.131 L 67.464 3.534 Z M 72.888 13.08 C 72.643 13.08 72.432 12.992 72.257 12.816 C 72.081 12.64 71.993 12.43 71.993 12.185 C 71.993 11.939 72.081 11.729 72.257 11.553 C 72.432 11.378 72.643 11.29 72.888 11.29 C 73.133 11.29 73.344 11.378 73.519 11.553 C 73.695 11.729 73.783 11.939 73.783 12.185 C 73.783 12.347 73.741 12.496 73.659 12.632 C 73.579 12.768 73.471 12.877 73.335 12.96 C 73.203 13.04 73.054 13.08 72.888 13.08 Z M 72.888 7.412 C 72.643 7.412 72.432 7.324 72.257 7.148 C 72.081 6.973 71.993 6.762 71.993 6.517 C 71.993 6.272 72.081 6.061 72.257 5.886 C 72.432 5.71 72.643 5.622 72.888 5.622 C 73.133 5.622 73.344 5.71 73.519 5.886 C 73.695 6.061 73.783 6.272 73.783 6.517 C 73.783 6.679 73.741 6.829 73.659 6.964 C 73.579 7.1 73.471 7.21 73.335 7.293 C 73.203 7.372 73.054 7.412 72.888 7.412 Z" fill="#0E121B"/>
  <path fill-rule="evenodd" clip-rule="evenodd" d="M 103.868 17 L 79.332 17 C 78.379 17 77.6 16.248 77.6 15.328 L 77.6 2.672 C 77.6 1.752 78.379 1 79.332 1 L 103.868 1 C 104.821 1 105.6 1.752 105.6 2.672 L 105.6 15.328 C 105.6 16.248 104.821 17 103.868 17 Z" fill="#005E7B"/>
  <path d="M88.375 11.8094H87.1602L86.7764 10.6405H84.5908L84.2217 11.8094H83L85.0059 6.12781H86.3447L88.375 11.8094ZM101.149 11.8094H99.9297L99.5459 10.6405H97.3604L96.9912 11.8094H95.7695L97.7734 6.12781H99.1143L101.149 11.8094ZM92.6572 6.12781C93.8257 6.12781 94.4287 6.64093 94.4287 7.56531C94.4287 8.13386 94.2097 8.52133 93.7539 8.73425C94.3416 8.97136 94.6249 9.41373 94.625 10.079C94.625 11.1606 93.9028 11.8074 92.5713 11.8075H90.001V6.12781H92.6572ZM91.1143 10.7831H92.4844C93.1202 10.7831 93.4209 10.568 93.4209 10.0477C93.4209 9.49369 93.1205 9.29578 92.4775 9.29578H91.1143V10.7831ZM84.8936 9.68445H86.46L85.6777 7.26746L84.8936 9.68445ZM97.667 9.68445H99.2344L98.4521 7.26746L97.667 9.68445ZM91.1143 8.32507H92.4395C92.9935 8.325 93.2617 8.14336 93.2617 7.70789C93.2617 7.27235 92.9886 7.11709 92.4297 7.11707H91.1143V8.32507Z" fill="white"/>
  <path d="M102.927 5H101.829V7.25771H102.927V5Z" fill="#EB2427"/>
  <path fill-rule="evenodd" clip-rule="evenodd" d="M 136.468 17 L 111.932 17 C 110.979 17 110.2 16.248 110.2 15.328 L 110.2 2.672 C 110.2 1.752 110.979 1 111.932 1 L 136.468 1 C 137.421 1 138.2 1.752 138.2 2.672 L 138.2 15.328 C 138.2 16.248 137.421 17 136.468 17 Z" fill="#E1232E"/>
  <path d="M127.002 8.68606V10.1156H125.511C125.358 10.1156 125.243 9.9965 125.243 9.85904V8.69524C125.243 8.54861 125.367 8.43864 125.511 8.43864H126.725C126.887 8.42948 127.002 8.53944 127.002 8.68606Z" fill="white"/>
  <path d="M133.991 9.26347H133.245C133.245 8.41123 132.518 7.71477 131.629 7.71477C130.922 7.71477 130.3 8.15464 130.09 8.79611C130.042 8.9519 130.014 9.10768 130.014 9.26347V11.5361H129.994C129.593 11.5361 129.268 11.2245 129.268 10.8396V9.26347H129.277C129.277 8.64033 129.545 8.04468 130.023 7.61397C130.463 7.21993 131.036 7 131.639 7C132.939 7 133.991 8.01718 133.991 9.26347Z" fill="white"/>
  <path d="M134 11.5364L132.948 11.5455L132.69 11.2981L132.117 10.7483L131.323 9.98767H132.375L134 11.5364Z" fill="white"/>
  <path d="M127.251 10.8213H125.004C124.727 10.8213 124.507 10.6106 124.507 10.3448V8.1913C124.507 7.92555 124.727 7.71477 125.004 7.71477H127.251C127.528 7.71477 127.748 7.92555 127.748 8.1913V10.3448L128.493 11.0596V7.69645C128.493 7.31157 128.168 7 127.767 7H124.488C124.086 7 123.761 7.31157 123.761 7.69645V10.8396C123.761 11.2245 124.086 11.5361 124.488 11.5361H127.996L127.251 10.8213Z" fill="white"/>
  <path d="M118.12 11.5453H117.069L114.87 9.42842V11.5453H114V7H114.87V9.02521L116.983 7H118.015L115.721 9.18099L118.12 11.5453Z" fill="white"/>
  <path d="M122.05 7H122.901V11.5453H122.05V9.57504H119.622V11.5453H118.771V7H119.622V8.89691H122.05V7Z" fill="white"/>
  <defs>
    <bx:export>
      <bx:file format="svg"/>
    </bx:export>
  </defs>
</svg>
